# xmcd
#
# Track frame offsets:
#	150
#	11777
#	21969
#	33114
#	44762
#	53819
#	63023
#	73748
#	86815
#	98997
#	111685
#	123272
#	135572
#	148082
#	157036
#	169433
#	181044
#	193794
#	205733
#	216636
#	227698
#	240515
#	249699
#	263022
#
# Disc length: 3648 seconds
#
# Revision: 0
# Processed by: cddbd v1.5.2PL0 Copyright (c) Steve Scherf et al.
# Submitted via: EasyCDDAExtractor 11.5.3.1
#
DISCID=690e3e18
DTITLE=Brown's Ferry Four - Fine Singing Of Wonderful Sacred Country Songs: 24
DTITLE=Songs
DYEAR=2008
DGENRE=Country
TTITLE0=Arm Of God
TTITLE1=Bound For The Shore
TTITLE2=Can't You Hear Him Calling
TTITLE3=Eternity Without Him
TTITLE4=Everybody Will Be Happy Over There
TTITLE5=Hallelujah Morning
TTITLE6=Heaven, Eternal For Me
TTITLE7=His Boundless Love
TTITLE8=I Am A Weary Pilgrim
TTITLE9=Jesus Hold My Hand
TTITLE10=Keep On The Firing Line
TTITLE11=Lord Is Watching Over Me
TTITLE12=On The Jericho Road #1
TTITLE13=Over In The Glory Land
TTITLE14=Praise God! He Loves Everybody
TTITLE15=Rock Of Ages, Hide Thou Me
TTITLE16=There's A Light Guiding Me
TTITLE17=There's A Page In The Bible
TTITLE18=Through The Pearly Gate
TTITLE19=What Shall I Do With Jesus
TTITLE20=When He Blessed My Soul
TTITLE21=When The Good Lord Cares
TTITLE22=Will The Circle Be Unbroken
TTITLE23=You Must Be Born Again
EXTD=
EXTT0=
EXTT1=
EXTT2=
EXTT3=
EXTT4=
EXTT5=
EXTT6=
EXTT7=
EXTT8=
EXTT9=
EXTT10=
EXTT11=
EXTT12=
EXTT13=
EXTT14=
EXTT15=
EXTT16=
EXTT17=
EXTT18=
EXTT19=
EXTT20=
EXTT21=
EXTT22=
EXTT23=
PLAYORDER=
